HIERARCHY
ROOT Hips
{
  OFFSET 0.0 0.0 0.0
  CHANNELS 6 Xposition Yposition Zposition Zrotation Xrotation Yrotation
  JOINT Spine
  {
    OFFSET 0.0 10.0 0.0
    CHANNELS 3 Zrotation Xrotation Yrotation
    JOINT Spine1
    {
      OFFSET 0.0 10.0 0.0
      CHANNELS 3 Zrotation Xrotation Yrotation
      JOINT Neck
      {
        OFFSET 0.0 10.0 0.0
        CHANNELS 3 Zrotation Xrotation Yrotation
        JOINT Head
        {
          OFFSET 0.0 5.0 0.0
          CHANNELS 3 Zrotation Xrotation Yrotation
          End Site
          {
            OFFSET 0.0 2.0 0.0
          }
        }
      }
      JOINT LeftShoulder
      {
        OFFSET -5.0 5.0 0.0
        CHANNELS 3 Zrotation Xrotation Yrotation
        JOINT LeftArm
        {
          OFFSET -10.0 0.0 0.0
          CHANNELS 3 Zrotation Xrotation Yrotation
          JOINT LeftForeArm
          {
            OFFSET -10.0 0.0 0.0
            CHANNELS 3 Zrotation Xrotation Yrotation
            End Site
            {
              OFFSET -5.0 0.0 0.0
            }
          }
        }
      }
      JOINT RightShoulder
      {
        OFFSET 5.0 5.0 0.0
        CHANNELS 3 Zrotation Xrotation Yrotation
        JOINT RightArm
        {
          OFFSET 10.0 0.0 0.0
          CHANNELS 3 Zrotation Xrotation Yrotation
          JOINT RightForeArm
          {
            OFFSET 10.0 0.0 0.0
            CHANNELS 3 Zrotation Xrotation Yrotation
            End Site
            {
              OFFSET 5.0 0.0 0.0
            }
          }
        }
      }
    }
  }
  JOINT LeftUpLeg
  {
    OFFSET -3.0 -10.0 0.0
    CHANNELS 3 Zrotation Xrotation Yrotation
    JOINT LeftLeg
    {
      OFFSET 0.0 -15.0 0.0
      CHANNELS 3 Zrotation Xrotation Yrotation
      JOINT LeftFoot
      {
        OFFSET 0.0 -10.0 5.0
        CHANNELS 3 Zrotation Xrotation Yrotation
        End Site
        {
          OFFSET 0.0 -2.0 5.0
        }
      }
    }
  }
  JOINT RightUpLeg
  {
    OFFSET 3.0 -10.0 0.0
    CHANNELS 3 Zrotation Xrotation Yrotation
    JOINT RightLeg
    {
      OFFSET 0.0 -15.0 0.0
      CHANNELS 3 Zrotation Xrotation Yrotation
      JOINT RightFoot
      {
        OFFSET 0.0 -10.0 5.0
        CHANNELS 3 Zrotation Xrotation Yrotation
        End Site
        {
          OFFSET 0.0 -2.0 5.0
        }
      }
    }
  }
}
MOTION
Frames: 20
Frame Time: 0.0333333
0.0 0.0 0.0 0.0 0.0 0.0 0.0 0.0 0.0 0.0 0.0 0.0 0.0 0.0 0.0 0.0 10.0 0.0 0.0 20.0 0.0 0.0 20.0 0.0 0.0 20.0 0.0 0.0 -20.0 0.0 0.0 -20.0 0.0 0.0 -20.0 0.0 0.0 20.0 0.0 0.0 20.0 0.0 0.0 20.0 0.0 0.0 -20.0 0.0 0.0 -20.0 0.0 0.0 -20.0 0.0
0.0 0.0 2.5 0.0 0.0 0.0 0.0 0.0 0.0 0.0 0.0 0.0 0.0 0.0 0.0 0.0 -10.0 0.0 0.0 -20.0 0.0 0.0 -20.0 0.0 0.0 -20.0 0.0 0.0 20.0 0.0 0.0 20.0 0.0 0.0 20.0 0.0 0.0 -20.0 0.0 0.0 -20.0 0.0 0.0 -20.0 0.0 0.0 20.0 0.0 0.0 20.0 0.0 0.0 20.0 0.0
0.0 0.0 5.0 0.0 0.0 0.0 0.0 0.0 0.0 0.0 0.0 0.0 0.0 0.0 0.0 0.0 10.0 0.0 0.0 20.0 0.0 0.0 20.0 0.0 0.0 20.0 0.0 0.0 -20.0 0.0 0.0 -20.0 0.0 0.0 -20.0 0.0 0.0 20.0 0.0 0.0 20.0 0.0 0.0 20.0 0.0 0.0 -20.0 0.0 0.0 -20.0 0.0 0.0 -20.0 0.0
0.0 0.0 7.5 0.0 0.0 0.0 0.0 0.0 0.0 0.0 0.0 0.0 0.0 0.0 0.0 0.0 -10.0 0.0 0.0 -20.0 0.0 0.0 -20.0 0.0 0.0 -20.0 0.0 0.0 20.0 0.0 0.0 20.0 0.0 0.0 20.0 0.0 0.0 -20.0 0.0 0.0 -20.0 0.0 0.0 -20.0 0.0 0.0 20.0 0.0 0.0 20.0 0.0 0.0 20.0 0.0
0.0 0.0 10.0 0.0 0.0 0.0 0.0 0.0 0.0 0.0 0.0 0.0 0.0 0.0 0.0 0.0 10.0 0.0 0.0 20.0 0.0 0.0 20.0 0.0 0.0 20.0 0.0 0.0 -20.0 0.0 0.0 -20.0 0.0 0.0 -20.0 0.0 0.0 20.0 0.0 0.0 20.0 0.0 0.0 20.0 0.0 0.0 -20.0 0.0 0.0 -20.0 0.0 0.0 -20.0 0.0
0.0 0.0 12.5 0.0 0.0 0.0 0.0 0.0 0.0 0.0 0.0 0.0 0.0 0.0 0.0 0.0 -10.0 0.0 0.0 -20.0 0.0 0.0 -20.0 0.0 0.0 -20.0 0.0 0.0 20.0 0.0 0.0 20.0 0.0 0.0 20.0 0.0 0.0 -20.0 0.0 0.0 -20.0 0.0 0.0 -20.0 0.0 0.0 20.0 0.0 0.0 20.0 0.0 0.0 20.0 0.0
0.0 0.0 15.0 0.0 0.0 0.0 0.0 0.0 0.0 0.0 0.0 0.0 0.0 0.0 0.0 0.0 10.0 0.0 0.0 20.0 0.0 0.0 20.0 0.0 0.0 20.0 0.0 0.0 -20.0 0.0 0.0 -20.0 0.0 0.0 -20.0 0.0 0.0 20.0 0.0 0.0 20.0 0.0 0.0 20.0 0.0 0.0 -20.0 0.0 0.0 -20.0 0.0 0.0 -20.0 0.0
0.0 0.0 17.5 0.0 0.0 0.0 0.0 0.0 0.0 0.0 0.0 0.0 0.0 0.0 0.0 0.0 -10.0 0.0 0.0 -20.0 0.0 0.0 -20.0 0.0 0.0 -20.0 0.0 0.0 20.0 0.0 0.0 20.0 0.0 0.0 20.0 0.0 0.0 -20.0 0.0 0.0 -20.0 0.0 0.0 -20.0 0.0 0.0 20.0 0.0 0.0 20.0 0.0 0.0 20.0 0.0
0.0 0.0 20.0 0.0 0.0 0.0 0.0 0.0 0.0 0.0 0.0 0.0 0.0 0.0 0.0 0.0 10.0 0.0 0.0 20.0 0.0 0.0 20.0 0.0 0.0 20.0 0.0 0.0 -20.0 0.0 0.0 -20.0 0.0 0.0 -20.0 0.0 0.0 20.0 0.0 0.0 20.0 0.0 0.0 20.0 0.0 0.0 -20.0 0.0 0.0 -20.0 0.0 0.0 -20.0 0.0
0.0 0.0 22.5 0.0 0.0 0.0 0.0 0.0 0.0 0.0 0.0 0.0 0.0 0.0 0.0 0.0 -10.0 0.0 0.0 -20.0 0.0 0.0 -20.0 0.0 0.0 -20.0 0.0 0.0 20.0 0.0 0.0 20.0 0.0 0.0 20.0 0.0 0.0 -20.0 0.0 0.0 -20.0 0.0 0.0 -20.0 0.0 0.0 20.0 0.0 0.0 20.0 0.0 0.0 20.0 0.0
0.0 0.0 25.0 0.0 0.0 0.0 0.0 0.0 0.0 0.0 0.0 0.0 0.0 0.0 0.0 0.0 10.0 0.0 0.0 20.0 0.0 0.0 20.0 0.0 0.0 20.0 0.0 0.0 -20.0 0.0 0.0 -20.0 0.0 0.0 -20.0 0.0 0.0 20.0 0.0 0.0 20.0 0.0 0.0 20.0 0.0 0.0 -20.0 0.0 0.0 -20.0 0.0 0.0 -20.0 0.0
0.0 0.0 27.5 0.0 0.0 0.0 0.0 0.0 0.0 0.0 0.0 0.0 0.0 0.0 0.0 0.0 -10.0 0.0 0.0 -20.0 0.0 0.0 -20.0 0.0 0.0 -20.0 0.0 0.0 20.0 0.0 0.0 20.0 0.0 0.0 20.0 0.0 0.0 -20.0 0.0 0.0 -20.0 0.0 0.0 -20.0 0.0 0.0 20.0 0.0 0.0 20.0 0.0 0.0 20.0 0.0
0.0 0.0 30.0 0.0 0.0 0.0 0.0 0.0 0.0 0.0 0.0 0.0 0.0 0.0 0.0 0.0 10.0 0.0 0.0 20.0 0.0 0.0 20.0 0.0 0.0 20.0 0.0 0.0 -20.0 0.0 0.0 -20.0 0.0 0.0 -20.0 0.0 0.0 20.0 0.0 0.0 20.0 0.0 0.0 20.0 0.0 0.0 -20.0 0.0 0.0 -20.0 0.0 0.0 -20.0 0.0
0.0 0.0 32.5 0.0 0.0 0.0 0.0 0.0 0.0 0.0 0.0 0.0 0.0 0.0 0.0 0.0 -10.0 0.0 0.0 -20.0 0.0 0.0 -20.0 0.0 0.0 -20.0 0.0 0.0 20.0 0.0 0.0 20.0 0.0 0.0 20.0 0.0 0.0 -20.0 0.0 0.0 -20.0 0.0 0.0 -20.0 0.0 0.0 20.0 0.0 0.0 20.0 0.0 0.0 20.0 0.0
0.0 0.0 35.0 0.0 0.0 0.0 0.0 0.0 0.0 0.0 0.0 0.0 0.0 0.0 0.0 0.0 10.0 0.0 0.0 20.0 0.0 0.0 20.0 0.0 0.0 20.0 0.0 0.0 -20.0 0.0 0.0 -20.0 0.0 0.0 -20.0 0.0 0.0 20.0 0.0 0.0 20.0 0.0 0.0 20.0 0.0 0.0 -20.0 0.0 0.0 -20.0 0.0 0.0 -20.0 0.0
0.0 0.0 37.5 0.0 0.0 0.0 0.0 0.0 0.0 0.0 0.0 0.0 0.0 0.0 0.0 0.0 -10.0 0.0 0.0 -20.0 0.0 0.0 -20.0 0.0 0.0 -20.0 0.0 0.0 20.0 0.0 0.0 20.0 0.0 0.0 20.0 0.0 0.0 -20.0 0.0 0.0 -20.0 0.0 0.0 -20.0 0.0 0.0 20.0 0.0 0.0 20.0 0.0 0.0 20.0 0.0
0.0 0.0 40.0 0.0 0.0 0.0 0.0 0.0 0.0 0.0 0.0 0.0 0.0 0.0 0.0 0.0 10.0 0.0 0.0 20.0 0.0 0.0 20.0 0.0 0.0 20.0 0.0 0.0 -20.0 0.0 0.0 -20.0 0.0 0.0 -20.0 0.0 0.0 20.0 0.0 0.0 20.0 0.0 0.0 20.0 0.0 0.0 -20.0 0.0 0.0 -20.0 0.0 0.0 -20.0 0.0
0.0 0.0 42.5 0.0 0.0 0.0 0.0 0.0 0.0 0.0 0.0 0.0 0.0 0.0 0.0 0.0 -10.0 0.0 0.0 -20.0 0.0 0.0 -20.0 0.0 0.0 -20.0 0.0 0.0 20.0 0.0 0.0 20.0 0.0 0.0 20.0 0.0 0.0 -20.0 0.0 0.0 -20.0 0.0 0.0 -20.0 0.0 0.0 20.0 0.0 0.0 20.0 0.0 0.0 20.0 0.0
0.0 0.0 45.0 0.0 0.0 0.0 0.0 0.0 0.0 0.0 0.0 0.0 0.0 0.0 0.0 0.0 10.0 0.0 0.0 20.0 0.0 0.0 20.0 0.0 0.0 20.0 0.0 0.0 -20.0 0.0 0.0 -20.0 0.0 0.0 -20.0 0.0 0.0 20.0 0.0 0.0 20.0 0.0 0.0 20.0 0.0 0.0 -20.0 0.0 0.0 -20.0 0.0 0.0 -20.0 0.0
0.0 0.0 47.5 0.0 0.0 0.0 0.0 0.0 0.0 0.0 0.0 0.0 0.0 0.0 0.0 0.0 -10.0 0.0 0.0 -20.0 0.0 0.0 -20.0 0.0 0.0 -20.0 0.0 0.0 20.0 0.0 0.0 20.0 0.0 0.0 20.0 0.0 0.0 -20.0 0.0 0.0 -20.0 0.0 0.0 -20.0 0.0 0.0 20.0 0.0 0.0 20.0 0.0 0.0 20.0 0.0
